<?xml version="1.0" standalone="no"?>
<!DOCTYPE svg PUBLIC "-//W3C//DTD SVG 20010904//EN"
 "http://www.w3.org/TR/2001/REC-SVG-20010904/DTD/svg10.dtd">
<svg version="1.0" xmlns="http://www.w3.org/2000/svg"
 width="534.000000pt" height="534.000000pt" viewBox="0 0 534.000000 534.000000"
 preserveAspectRatio="xMidYMid meet">
<metadata>
Created by potrace 1.14, written by Peter Selinger 2001-2017
</metadata>
<g transform="translate(0.000000,534.000000) scale(0.100000,-0.100000)"
fill="#000000" stroke="none">
<path d="M2946 5298 c-129 -226 -256 -451 -256 -454 0 -2 -16 -28 -35 -58 -19
-30 -35 -57 -35 -60 0 -2 -40 -75 -90 -161 -49 -86 -90 -161 -90 -166 0 -5 -4
-9 -10 -9 -5 0 -10 -4 -10 -9 0 -4 -70 -131 -156 -282 -551 -968 -700 -1229
-722 -1269 -14 -25 -88 -155 -165 -290 -173 -302 -187 -330 -187 -368 0 -46
36 -80 95 -89 28 -5 285 -8 571 -8 521 1 522 1 519 -19 -5 -30 -11 -69 -40
-271 -14 -99 -28 -191 -30 -205 -8 -53 -35 -247 -40 -295 -4 -27 -8 -57 -11
-66 -3 -9 -7 -38 -9 -63 -3 -26 -16 -120 -29 -209 -14 -89 -27 -180 -30 -202
-3 -22 -21 -148 -40 -280 -19 -132 -37 -265 -41 -295 -4 -30 -11 -77 -16 -104
-5 -27 -9 -53 -9 -57 0 -5 67 -9 148 -9 l148 0 56 98 c31 53 65 113 76 132 11
19 52 91 91 159 39 68 71 126 71 129 0 2 8 16 18 30 11 15 35 56 54 92 20 36
68 121 107 188 39 68 71 128 71 133 0 5 5 9 10 9 6 0 10 4 10 9 0 7 180 330
229 411 23 38 538 938 552 965 9 16 74 131 146 255 267 463 284 494 290 539 7
50 -26 89 -88 104 -31 8 -207 12 -572 12 l-526 -1 4 31 c18 127 37 259 40 274
2 10 6 42 10 71 4 29 8 62 11 73 2 11 6 41 9 66 3 25 7 55 9 67 2 12 7 45 11
74 4 29 9 62 11 74 2 12 6 39 9 61 2 22 6 54 9 70 2 17 10 66 16 110 6 44 13
91 15 105 2 14 7 45 10 70 3 25 13 90 21 145 14 97 28 198 40 280 3 22 7 47 9
55 2 8 7 47 11 85 3 39 8 72 9 75 2 3 6 30 10 60 3 30 8 62 10 70 2 8 7 40 10
70 3 30 8 63 11 73 5 16 -7 17 -145 17 l-150 0 -25 -42z"/>
</g>
</svg>
